<svg width="94" height="51" viewBox="0 0 94 51" fill="none" xmlns="http://www.w3.org/2000/svg">
<path d="M10.0916 44.531V45.2027H8.2926V50.9431H7.48226V45.2027H5.67249V44.531H10.0916ZM22.0144 50.9431L20.3532 48.3244H19.4483V50.9431H18.638V44.531H20.7341C21.4544 44.531 21.9946 44.7068 22.3548 45.0585C22.5364 45.2375 22.6784 45.4531 22.7715 45.6911C22.8646 45.9292 22.9067 46.1844 22.895 46.4399C22.9171 46.9021 22.7613 47.355 22.4601 47.7044C22.1233 48.0439 21.6788 48.2537 21.2041 48.2972L22.9598 50.9431H22.0144ZM19.4483 47.7234H20.6504C21.585 47.7234 22.0523 47.311 22.0523 46.4862C22.0523 45.6613 21.585 45.2489 20.6504 45.2489H19.4483V47.7234ZM35.3554 49.4611H32.5624L32.0222 50.9431H31.1362L33.4943 44.6479H34.4262L36.7762 50.9431H35.8902L35.3554 49.4611ZM35.1204 48.8166L33.9535 45.5779L32.7893 48.8166H35.1204ZM48.9368 44.531V45.2027H46.1627V47.4243H48.5208V48.0688H46.1627V50.9431H45.3524V44.531H48.9368ZM61.2459 44.531V45.2027H58.4692V47.4243H60.8273V48.0688H58.4692V50.9431H57.6588V44.531H61.2459ZM70.7675 44.531V50.9431H69.9571V44.531H70.7675ZM82.6363 44.4657C83.3252 44.4387 84.0031 44.6445 84.5623 45.0504C85.0756 45.4423 85.4444 45.9954 85.6103 46.6221H84.7432C84.5903 46.2126 84.3158 45.8604 83.9572 45.6133C83.565 45.3486 83.1002 45.2145 82.6282 45.2299C82.233 45.2243 81.8442 45.3318 81.5073 45.5399C81.1727 45.7527 80.9033 46.0549 80.7293 46.4127C80.5378 46.8288 80.4453 47.2841 80.4592 47.7425C80.4459 48.1973 80.5384 48.6489 80.7293 49.0613C80.9064 49.4171 81.1751 49.7185 81.5073 49.9342C81.8459 50.1374 82.234 50.2419 82.6282 50.236C83.099 50.2515 83.5631 50.1205 83.9572 49.8608C84.3152 49.6095 84.5893 49.2549 84.7432 48.8438H85.6265C85.4588 49.4726 85.0906 50.0287 84.5785 50.4264C84.0164 50.8252 83.3397 51.0268 82.6526 51.0002C82.0985 51.0106 81.5522 50.8687 81.0724 50.5895C80.6125 50.313 80.2383 49.9128 79.9919 49.4339C79.7411 48.9038 79.611 48.3241 79.611 47.737C79.611 47.1499 79.7411 46.5702 79.9919 46.0402C80.2352 45.5591 80.6101 45.1581 81.0724 44.8845C81.5512 44.5998 82.0993 44.4549 82.6553 44.4657H82.6363Z" fill="white"/>
<path d="M37.9242 26.4913V5.00901C37.9242 4.60656 38.0322 4.40261 38.2537 4.40261H41.8462C42.3979 4.38403 42.9468 4.48821 43.4539 4.70771C43.9609 4.92722 44.4136 5.25665 44.7797 5.67251C45.5288 6.51911 46.1132 8.0836 46.5327 10.366C46.9523 12.6484 47.172 15.7492 47.1918 19.6686C47.1918 21.0446 47.1711 22.3136 47.1297 23.4756C48.9269 23.1568 50.7454 22.975 52.5698 22.9317C52.604 21.8712 52.6211 20.7491 52.6211 19.5653C52.6211 15.8834 52.3924 12.7635 51.935 10.2055C51.4776 7.64761 50.8105 5.62356 49.9335 4.1334C49.0331 2.65955 47.9914 1.60085 46.8083 0.957289C45.5217 0.288498 44.0877 -0.0408336 42.6404 0.0001039H33.208C33.1094 -0.00890765 33.0101 0.00644668 32.9188 0.0448326C32.8275 0.0832186 32.7469 0.143475 32.6839 0.220365C32.5732 0.35089 32.5192 0.644572 32.5192 1.10413V27.9624C34.3672 27.6647 36.1789 27.1716 37.9242 26.4913Z" fill="white"/>
<path d="M26.2011 28.3539V1.29713C26.2114 1.0074 26.174 0.717949 26.0903 0.440555C26.0273 0.239329 25.9499 0.11968 25.858 0.0816106C25.7485 0.0229549 25.6254 -0.00520722 25.5015 3.23663e-05H21.4713C21.3683 -0.00478063 21.2655 0.0151471 21.1716 0.0581718C21.0777 0.101196 20.9952 0.166085 20.9311 0.247486C20.7899 0.577986 20.7332 0.93888 20.7663 1.29713V27.8563C22.5612 28.1727 24.379 28.3391 26.2011 28.3539Z" fill="white"/>
<path d="M63.088 24.0248L65.908 5.41136C65.9242 5.29987 65.962 5.24548 66.016 5.24548C66.0701 5.24548 66.0809 5.31074 66.0998 5.43855L68.728 26.0534C70.5196 26.8098 72.3793 27.3908 74.2816 27.7883L69.8976 1.38139C69.7589 0.498534 69.4294 0.0380698 68.909 0H63.3419C62.8125 0.0380698 62.4748 0.498534 62.329 1.38139L58.6527 23.1791C60.1503 23.3475 61.633 23.6302 63.088 24.0248V24.0248Z" fill="white"/>
<path d="M0.301122 4.41468C0.436843 4.43658 0.574297 4.44569 0.711697 4.44187H5.48193C5.68451 4.44187 5.78446 4.67301 5.78446 5.13257V23.3109C7.63269 23.5804 9.45085 24.0284 11.2138 24.6488V5.13257C11.2138 4.67301 11.3137 4.44187 11.5163 4.44187H16.2055C16.2989 4.45322 16.3936 4.44455 16.4835 4.41643C16.5733 4.38831 16.6563 4.34138 16.7268 4.27872C16.8349 4.14819 16.8889 3.85451 16.8889 3.39495V1.21953C16.922 0.888058 16.866 0.553725 16.7268 0.251472C16.6695 0.167117 16.5911 0.0993747 16.4997 0.0550009C16.4082 0.010627 16.3068 -0.00882682 16.2055 -0.00142031H0.711697C0.608176 -0.00984338 0.504232 0.00846161 0.409699 0.0517629C0.315166 0.0950641 0.233169 0.16193 0.171467 0.246034C0.0526167 0.395594 -0.00140627 0.716468 -0.00140627 1.2141V3.38952C-0.0108695 3.64053 0.0164349 3.89159 0.0796282 4.1346C0.12363 4.24836 0.200858 4.34601 0.301122 4.41468V4.41468Z" fill="white"/>
<path d="M80.8239 28.3594C82.4883 28.3698 84.1516 28.2663 85.8021 28.0494V1.29719C85.8021 0.753332 85.7454 0.397107 85.6373 0.247547C85.5793 0.164192 85.5007 0.0975183 85.4093 0.0541186C85.3179 0.010719 85.2168 -0.00790351 85.116 9.26409e-05H81.0859C80.9851 -0.00817904 80.8839 0.0103203 80.7924 0.0537431C80.7009 0.0971658 80.6224 0.163992 80.5646 0.247547C80.4538 0.397107 80.3998 0.745174 80.3998 1.29719V28.3567L80.8239 28.3594Z" fill="white"/>
<path d="M93.314 35.3072H86.1856C85.929 35.3072 85.8021 35.106 85.8021 34.7008V31.6144C84.1496 31.8055 82.4872 31.8963 80.8239 31.8864H80.3998V38.3936C80.3998 38.9375 80.4538 39.3046 80.5646 39.4813C80.6272 39.5578 80.7074 39.6178 80.7982 39.6562C80.889 39.6945 80.9878 39.7101 81.0859 39.7016H93.314C93.4096 39.7101 93.506 39.6972 93.5961 39.6638C93.6862 39.6304 93.7679 39.5774 93.8353 39.5085C93.9746 39.2266 94.0317 38.9108 94.0001 38.5975V36.3841C94.0001 35.9245 93.946 35.6308 93.8353 35.5003C93.7679 35.4314 93.6862 35.3783 93.5961 35.345C93.506 35.3116 93.4096 35.2987 93.314 35.3072V35.3072Z" fill="#06F48A"/>
<path d="M46.9081 27.1166C46.8271 27.965 46.7298 28.7264 46.6164 29.4008C46.2562 31.6451 45.6899 33.186 44.9174 34.0236C44.1475 34.8693 43.0617 35.2935 41.6517 35.2935H38.2806C38.0429 35.2935 37.9241 35.0923 37.9241 34.6871V30.2465C36.168 30.8475 34.3591 31.2791 32.5218 31.5354V38.4832C32.5218 38.9971 32.5758 39.3289 32.6866 39.4757C32.7492 39.5522 32.8294 39.6122 32.9202 39.6506C33.011 39.689 33.1098 39.7045 33.2079 39.696H41.9002C42.834 39.7055 43.7675 39.6592 44.6959 39.5573C45.5035 39.438 46.2947 39.2254 47.054 38.9237C47.8124 38.6411 48.4969 38.1882 49.0555 37.5994C49.667 36.8878 50.1837 36.0989 50.5925 35.2527C51.1338 34.1062 51.5121 32.8887 51.7162 31.6361C52.0256 29.9376 52.2456 28.2239 52.3752 26.5021V26.483C50.5378 26.5298 48.7081 26.7418 46.9081 27.1166V27.1166Z" fill="#06F48A"/>
<path d="M75.986 38.2602C75.971 38.1602 75.9611 38.0595 75.9563 37.9584L74.8758 31.4811C71.4103 30.9535 69.0224 29.9909 66.6914 29.0501C64.2009 28.0439 61.8158 27.0813 58.0477 26.668L56.1434 37.9584C56.1191 38.113 56.1101 38.2697 56.1164 38.4261V38.8857C56.1164 39.4295 56.2514 39.6851 56.5269 39.6851H60.0384C60.1324 39.6918 60.2266 39.6752 60.3127 39.6368C60.3989 39.5984 60.4744 39.5394 60.5327 39.4649C60.6815 39.1724 60.7732 38.8539 60.8029 38.5267L61.9725 31.5436C62.0454 31.1221 62.1453 30.91 62.275 30.91H68.909C69.0549 30.91 69.1575 31.1113 69.2115 31.5164L70.2299 38.5648C70.3559 39.3189 70.6386 39.696 71.078 39.696H75.6024C75.9131 39.696 76.0697 39.4377 76.0697 38.9237C76.0681 38.8325 76.059 38.7416 76.0427 38.6518C76.039 38.5195 76.02 38.3881 75.986 38.2602V38.2602Z" fill="#06F48A"/>
<path d="M5.78588 26.891V38.3718C5.75399 38.7424 5.81048 39.1153 5.95065 39.4595C6.01302 39.5404 6.09411 39.6048 6.18686 39.647C6.27961 39.6892 6.3812 39.7079 6.48278 39.7015H10.5021C10.6029 39.7095 10.704 39.6909 10.7954 39.6475C10.8868 39.6041 10.9654 39.5374 11.0234 39.454C11.1504 39.2882 11.2152 38.9292 11.2152 38.3663V28.4138C9.46297 27.7174 7.64334 27.2071 5.78588 26.891V26.891Z" fill="#06F48A"/>
<path d="M20.7584 31.4459V38.399C20.7502 38.6868 20.7774 38.9746 20.8394 39.2556C20.8788 39.4079 20.966 39.5433 21.0879 39.6418C21.2116 39.6825 21.3414 39.701 21.4715 39.6961H25.5016C25.6024 39.7041 25.7035 39.6855 25.7949 39.6421C25.8863 39.5987 25.9649 39.532 26.0229 39.4487C26.1642 39.1182 26.2208 38.7573 26.1877 38.399V31.8891C24.3697 31.8721 22.5553 31.7239 20.7584 31.4459V31.4459Z" fill="#06F48A"/>
</svg>
